<svg width="24" height="19" viewBox="0 0 24 19" fill="none" xmlns="http://www.w3.org/2000/svg">
<path d="M20.317 2.15509C18.7873 1.4532 17.147 0.936088 15.4319 0.639914C15.4007 0.634198 15.3695 0.648483 15.3534 0.677053C15.1424 1.05227 14.9087 1.54177 14.7451 1.92651C12.9004 1.65034 11.0652 1.65034 9.25832 1.92651C9.09465 1.53321 8.85248 1.05227 8.64057 0.677053C8.62449 0.649436 8.59328 0.635151 8.56205 0.639914C6.84791 0.935141 5.20756 1.45226 3.67693 2.15509C3.66368 2.1608 3.65233 2.17033 3.64479 2.1827C0.533392 6.83106 -0.31895 11.3652 0.0991801 15.8431C0.101072 15.865 0.11337 15.8859 0.130398 15.8992C2.18321 17.4068 4.17171 18.322 6.12328 18.9286C6.15451 18.9382 6.18761 18.9267 6.20748 18.901C6.66913 18.2706 7.08064 17.6058 7.43348 16.9068C7.4543 16.8659 7.43442 16.8173 7.39186 16.8011C6.73913 16.5535 6.1176 16.2516 5.51973 15.9088C5.47244 15.8812 5.46865 15.8135 5.51216 15.7811C5.63797 15.6869 5.76382 15.5888 5.88396 15.4897C5.90569 15.4716 5.93598 15.4678 5.96153 15.4792C9.88928 17.2725 14.1415 17.2725 18.023 15.4792C18.0485 15.4669 18.0788 15.4707 18.1015 15.4888C18.2216 15.5878 18.3475 15.6869 18.4742 15.7811C18.5177 15.8135 18.5149 15.8812 18.4676 15.9088C17.8697 16.2583 17.2482 16.5535 16.5945 16.8002C16.552 16.8163 16.533 16.8659 16.5538 16.9068C16.9143 17.6049 17.3258 18.2696 17.7789 18.9001C17.7978 18.9267 17.8319 18.9382 17.8631 18.9286C19.8241 18.322 21.8126 17.4068 23.8654 15.8992C23.8834 15.8859 23.8948 15.8659 23.8967 15.844C24.3971 10.6671 23.0585 6.17015 20.3482 2.18365C20.3416 2.17033 20.3303 2.1608 20.317 2.15509ZM8.02002 13.1165C6.8375 13.1165 5.86313 12.0308 5.86313 10.6976C5.86313 9.36428 6.8186 8.27863 8.02002 8.27863C9.23087 8.27863 10.1958 9.37381 10.1769 10.6976C10.1769 12.0308 9.22141 13.1165 8.02002 13.1165ZM15.9947 13.1165C14.8123 13.1165 13.8379 12.0308 13.8379 10.6976C13.8379 9.36428 14.7933 8.27863 15.9947 8.27863C17.2056 8.27863 18.1705 9.37381 18.1516 10.6976C18.1516 12.0308 17.2056 13.1165 15.9947 13.1165Z" fill="white"/>
</svg>
