<svg width="22" height="19" viewBox="0 0 22 19" fill="none" xmlns="http://www.w3.org/2000/svg">
<path d="M21.5 15V16.875C21.5 17.9093 20.6585 18.75 19.625 18.75H3.5C1.8455 18.75 0.5 17.4045 0.5 15.75C0.5 15.75 0.5 3.01125 0.5 3C0.5 1.3455 1.8455 0 3.5 0H17.375C17.9967 0 18.5 0.504 18.5 1.125C18.5 1.746 17.9967 2.25 17.375 2.25H3.5C3.08675 2.25 2.75 2.586 2.75 3C2.75 3.414 3.08675 3.75 3.5 3.75H19.625C20.6585 3.75 21.5 4.59075 21.5 5.625V7.5H17.75C15.6823 7.5 14 9.18225 14 11.25C14 13.3177 15.6823 15 17.75 15H21.5Z" fill="#141B22"/>
<path d="M21.5 9V13.5H17.75C16.5073 13.5 15.5 12.4927 15.5 11.25C15.5 10.0073 16.5073 9 17.75 9H21.5Z" fill="#141B22"/>
</svg>
